<svg width="531" height="548" viewBox="0 0 531 548" fill="none" xmlns="http://www.w3.org/2000/svg">
<circle cx="250" cy="298" r="240" fill="#FFBB00" stroke="black" stroke-width="20"/>
<mask id="path-2-inside-1_19_34" fill="white">
<path fill-rule="evenodd" clip-rule="evenodd" d="M457.868 436.893C485.338 395.78 500 347.445 500 298C500 435.562 388.896 547.174 251.528 547.995C283.686 547.799 315.667 541.398 345.671 528.97C391.353 510.048 430.397 478.005 457.868 436.893ZM248.306 547.994C248.87 547.998 249.435 548 250 548C250.51 548 251.019 547.998 251.528 547.995C250.454 548.002 249.38 548.002 248.306 547.994ZM74.0446 475.594C108.883 510.111 153.111 533.625 201.228 543.196C216.808 546.295 232.571 547.888 248.306 547.994C180.358 547.543 118.847 519.986 74.0446 475.594ZM72.406 473.956C28.0317 429.171 0.47849 367.69 0.0062883 299.775C0.117706 315.483 1.70999 331.219 4.80379 346.773C14.3747 394.889 37.8891 439.117 72.406 473.956ZM0.00519534 296.39C0.00181339 296.926 0.000119881 297.463 0.000119881 298C0.000119881 298.592 0.00217828 299.184 0.0062883 299.775C-0.00171574 298.646 -0.00207751 297.518 0.00519534 296.39ZM250 48C388.071 48 500 159.929 500 298H250V48ZM250 48C112.466 48 0.871267 159.06 0.00519534 296.39C0.212343 264.259 6.613 232.307 19.0302 202.329C37.9521 156.648 69.9953 117.603 111.108 90.1326C152.22 62.6622 200.555 48 250 48Z"/>
</mask>
<path fill-rule="evenodd" clip-rule="evenodd" d="M457.868 436.893C485.338 395.78 500 347.445 500 298C500 435.562 388.896 547.174 251.528 547.995C283.686 547.799 315.667 541.398 345.671 528.97C391.353 510.048 430.397 478.005 457.868 436.893ZM248.306 547.994C248.87 547.998 249.435 548 250 548C250.51 548 251.019 547.998 251.528 547.995C250.454 548.002 249.38 548.002 248.306 547.994ZM74.0446 475.594C108.883 510.111 153.111 533.625 201.228 543.196C216.808 546.295 232.571 547.888 248.306 547.994C180.358 547.543 118.847 519.986 74.0446 475.594ZM72.406 473.956C28.0317 429.171 0.47849 367.69 0.0062883 299.775C0.117706 315.483 1.70999 331.219 4.80379 346.773C14.3747 394.889 37.8891 439.117 72.406 473.956ZM0.00519534 296.39C0.00181339 296.926 0.000119881 297.463 0.000119881 298C0.000119881 298.592 0.00217828 299.184 0.0062883 299.775C-0.00171574 298.646 -0.00207751 297.518 0.00519534 296.39ZM250 48C388.071 48 500 159.929 500 298H250V48ZM250 48C112.466 48 0.871267 159.06 0.00519534 296.39C0.212343 264.259 6.613 232.307 19.0302 202.329C37.9521 156.648 69.9953 117.603 111.108 90.1326C152.22 62.6622 200.555 48 250 48Z" fill="url(#paint0_linear_19_34)"/>
<path d="M457.868 436.893L474.497 448.004L474.497 448.004L457.868 436.893ZM345.671 528.97L338.017 510.492L338.017 510.492L345.671 528.97ZM201.228 543.196L197.326 562.812L197.326 562.812L201.228 543.196ZM74.0446 475.594L88.1211 461.387C80.2746 453.612 67.6116 453.671 59.8373 461.517C52.0631 469.364 52.1215 482.027 59.9678 489.801L74.0446 475.594ZM72.406 473.956L58.1989 488.032C65.9732 495.879 78.6363 495.937 86.4827 488.163C94.3291 480.389 94.3876 467.726 86.6135 459.879L72.406 473.956ZM4.80379 346.773L24.4195 342.871L24.4195 342.871L4.80379 346.773ZM250 298H230C230 309.046 238.954 318 250 318V298ZM19.0302 202.329L37.5078 209.983L37.5078 209.983L19.0302 202.329ZM111.108 90.1326L99.9962 73.5032L99.9962 73.5032L111.108 90.1326ZM480 298C480 343.49 466.511 387.958 441.238 425.781L474.497 448.004C504.165 403.603 520 351.401 520 298H480ZM480 298C480 424.556 377.784 527.24 251.408 527.996L251.647 567.995C400.008 567.107 520 446.567 520 298H480ZM338.017 510.492C310.414 521.926 280.991 527.815 251.405 527.996L251.65 567.995C286.381 567.783 320.921 560.87 353.325 547.447L338.017 510.492ZM441.238 425.781C415.965 463.604 380.044 493.084 338.017 510.492L353.325 547.447C402.661 527.012 444.829 492.405 474.497 448.004L441.238 425.781ZM250 528C249.479 528 248.958 527.998 248.439 527.995L248.173 567.994C248.782 567.998 249.391 568 250 568V528ZM251.408 527.996C250.939 527.999 250.47 528 250 528V568C250.55 568 251.099 567.998 251.648 567.995L251.408 527.996ZM251.405 527.996C250.417 528.002 249.429 528.002 248.441 527.995L248.171 567.994C249.331 568.002 250.49 568.002 251.65 567.995L251.405 527.996ZM205.129 523.581C160.862 514.775 120.172 493.142 88.1211 461.387L59.9681 489.802C97.5934 527.08 145.36 552.475 197.326 562.812L205.129 523.581ZM248.441 527.995C233.965 527.897 219.463 526.432 205.129 523.581L197.326 562.812C214.152 566.159 231.176 567.879 248.17 567.994L248.441 527.995ZM248.439 527.995C185.925 527.58 129.362 502.249 88.1215 461.387L59.9678 489.801C108.333 537.723 174.792 567.507 248.173 567.994L248.439 527.995ZM86.6131 459.879C45.7673 418.655 20.4402 362.12 20.0058 299.636L-19.9932 299.914C-19.4833 373.261 10.2962 439.686 58.1989 488.032L86.6131 459.879ZM24.4195 342.871C21.5732 328.561 20.1083 314.084 20.0058 299.633L-19.9932 299.917C-19.8729 316.882 -18.1532 333.877 -14.8119 350.674L24.4195 342.871ZM86.6135 459.879C54.858 427.828 33.2248 387.138 24.4195 342.871L-14.8119 350.674C-4.47529 402.64 20.9202 450.407 58.1985 488.032L86.6135 459.879ZM20.0001 298C20.0001 297.505 20.0017 297.01 20.0048 296.516L-19.9944 296.264C-19.9981 296.842 -19.9999 297.421 -19.9999 298H20.0001ZM20.0058 299.636C20.002 299.091 20.0001 298.546 20.0001 298H-19.9999C-19.9999 298.638 -19.9977 299.276 -19.9932 299.914L20.0058 299.636ZM20.0058 299.633C19.9984 298.595 19.9981 297.557 20.0048 296.519L-19.9944 296.261C-20.0022 297.479 -20.0019 298.698 -19.9932 299.917L20.0058 299.633ZM250 68C377.026 68 480 170.975 480 298H520C520 148.883 399.117 28 250 28V68ZM250 318H500V278H250V318ZM230 48V298H270V48H230ZM20.0048 296.516C20.8016 170.175 123.469 68 250 68V28C101.463 28 -19.059 147.944 -19.9944 296.264L20.0048 296.516ZM20.0048 296.519C20.1954 266.958 26.084 237.562 37.5078 209.983L0.552639 194.675C-12.858 227.052 -19.7707 261.56 -19.9944 296.261L20.0048 296.519ZM37.5078 209.983C54.916 167.956 84.3957 132.035 122.219 106.762L99.9962 73.5032C55.5949 103.171 20.9883 145.339 0.552638 194.675L37.5078 209.983ZM122.219 106.762C160.042 81.4893 204.51 68 250 68V28C196.599 28 144.397 43.8352 99.9962 73.5032L122.219 106.762Z" fill="white" mask="url(#path-2-inside-1_19_34)"/>
<path d="M389.139 183.236C395.205 182.26 400.866 182.257 406.121 183.226C411.447 184.098 416.13 185.808 420.17 188.356C424.21 190.904 427.538 194.128 430.154 198.029C432.769 201.93 434.47 206.323 435.256 211.21L442.291 254.935C443.077 259.822 442.778 264.408 441.393 268.693C440.079 272.88 437.876 276.648 434.785 279.998C431.694 283.348 427.827 286.174 423.184 288.476C418.542 290.779 413.314 292.398 407.501 293.333C401.435 294.309 395.879 294.425 390.832 293.681C385.87 292.924 381.481 291.426 377.664 289.188C373.944 287.021 370.908 284.268 368.556 280.93C366.19 277.508 364.662 273.648 363.971 269.351L363.869 268.719L388.638 264.734L388.74 265.366C389.215 268.315 390.907 270.506 393.817 271.939C396.727 273.373 400.204 273.764 404.248 273.113C406.354 272.774 408.251 272.21 409.939 271.42C411.711 270.616 413.197 269.642 414.395 268.499C415.665 267.257 416.571 265.902 417.112 264.432C417.738 262.948 417.908 261.322 417.623 259.552L415.936 249.063C415.245 249.607 414.253 250.155 412.959 250.709C411.75 251.249 410.407 251.768 408.931 252.265C407.54 252.748 406.099 253.196 404.61 253.608C403.107 253.936 401.766 254.195 400.586 254.385C394.773 255.32 389.266 255.472 384.065 254.839C378.934 254.109 374.341 252.687 370.284 250.574C366.228 248.461 362.848 245.72 360.145 242.352C357.513 238.886 355.825 234.836 355.079 230.203L354.124 224.263C353.337 219.377 353.574 214.671 354.834 210.147C356.094 205.623 358.243 201.517 361.28 197.831C364.317 194.144 368.185 191.059 372.885 188.574C377.655 185.991 383.073 184.212 389.139 183.236ZM390.135 189.428C390.862 195.016 390.771 199.827 389.865 203.863C388.945 207.814 387.235 211.157 384.737 213.893C382.238 216.628 378.971 218.882 374.935 220.655C370.969 222.331 366.255 223.651 360.792 224.616C366.451 223.792 371.481 223.631 375.883 224.133C380.37 224.621 384.248 225.899 387.52 227.965C390.791 230.032 393.461 232.93 395.53 236.659C397.586 240.304 399.068 244.949 399.976 250.594C399.068 244.949 399.018 240.074 399.827 235.968C400.622 231.778 402.249 228.188 404.707 225.2C407.164 222.212 410.405 219.789 414.427 217.932C418.534 216.061 423.397 214.587 429.014 213.51C423.525 214.307 418.592 214.539 414.217 214.206C409.842 213.873 406.039 212.799 402.809 210.985C399.564 209.087 396.886 206.406 394.773 202.943C392.66 199.48 391.114 194.975 390.135 189.428Z" fill="black"/>
<path d="M376.221 288.383L380.369 314.164C381.355 320.293 381.22 325.695 379.962 330.37C378.778 335.098 376.641 339.137 373.55 342.486C370.522 345.826 366.645 348.524 361.92 350.581C357.268 352.69 352.003 354.218 346.127 355.163C340.251 356.109 334.71 356.32 329.504 355.796C324.373 355.325 319.782 353.989 315.733 351.788C311.747 349.577 308.424 346.45 305.764 342.405C303.04 338.37 301.186 333.288 300.2 327.159L296.037 301.284L376.221 288.383ZM305.223 326.351C306.067 331.596 307.663 335.876 310.012 339.193C312.307 342.584 315.181 345.136 318.633 346.849C322.159 348.615 326.151 349.659 330.61 349.978C335.133 350.288 339.985 350.026 345.166 349.192C350.348 348.358 355.005 347.091 359.14 345.388C363.274 343.686 366.674 341.453 369.341 338.691C372.082 335.981 373.978 332.662 375.032 328.732C376.158 324.856 376.3 320.296 375.456 315.051L372.208 294.863L301.975 306.163L305.223 326.351ZM330.904 325.817C334.602 325.027 337.029 323.794 338.185 322.117C339.341 320.44 339.734 318.044 339.362 314.927C339.986 318.003 341.111 320.156 342.734 321.385C344.358 322.615 347.05 323.025 350.808 322.614C347.111 323.404 344.679 324.605 343.512 326.219C342.356 327.896 341.969 330.324 342.351 333.504C341.716 330.365 340.587 328.181 338.963 326.951C337.349 325.785 334.663 325.407 330.904 325.817Z" fill="black"/>
<path d="M240.859 207.222C247.093 206.219 252.887 206.238 258.24 207.278C263.593 208.318 268.317 210.281 272.411 213.166C276.576 215.953 280.014 219.592 282.724 224.082C285.435 228.573 287.271 233.809 288.233 239.791L293.337 271.511C294.299 277.492 294.198 283.04 293.033 288.154C291.868 293.268 289.745 297.802 286.664 301.755C283.682 305.778 279.812 309.123 275.055 311.79C270.298 314.457 264.803 316.292 258.568 317.295C252.334 318.298 246.54 318.279 241.187 317.239C235.833 316.199 231.067 314.243 226.889 311.372C222.808 308.571 219.413 304.926 216.702 300.435C213.992 295.945 212.156 290.708 211.193 284.727L206.09 253.007C205.127 247.025 205.229 241.477 206.394 236.363C207.559 231.249 209.64 226.722 212.636 222.783C215.703 218.746 219.615 215.394 224.372 212.727C229.128 210.06 234.624 208.226 240.859 207.222ZM212.17 268.234C217.478 267.38 222.581 267.942 227.48 269.92C232.463 271.884 236.964 274.876 240.981 278.897C245.083 282.904 248.591 287.785 251.505 293.539C254.405 299.209 256.482 305.401 257.734 312.114C256.819 305.346 256.841 298.774 257.803 292.396C258.765 286.019 260.523 280.291 263.077 275.212C265.715 270.121 269.049 265.868 273.081 262.453C277.197 259.025 281.908 256.884 287.216 256.03C281.908 256.884 276.763 256.329 271.78 254.365C266.881 252.388 262.38 249.395 258.278 245.388C254.261 241.367 250.795 236.48 247.881 230.725C244.967 224.971 242.884 218.738 241.631 212.025C242.547 218.792 242.524 225.364 241.562 231.742C240.601 238.12 238.807 243.897 236.183 249.073C233.629 254.151 230.294 258.404 226.179 261.832C222.147 265.246 217.478 267.38 212.17 268.234Z" fill="black"/>
<path d="M417.262 88.3732C413.388 87.3351 409.987 85.8497 407.06 83.9168C404.154 81.9015 401.805 79.4608 400.011 76.5948C398.299 73.7509 397.237 70.4626 396.823 66.7298C396.41 62.9969 396.822 58.8226 398.059 54.2068C399.295 49.5909 401.026 45.77 403.25 42.7439C405.475 39.7178 408.028 37.4424 410.91 35.9178C413.897 34.3328 417.141 33.4352 420.643 33.225C424.144 33.0148 427.832 33.4287 431.706 34.4668C435.498 35.4827 438.857 36.9571 441.785 38.89C444.795 40.845 447.197 43.2555 448.991 46.1215C450.807 48.905 451.921 52.1632 452.335 55.896C452.748 59.6289 452.336 63.8032 451.099 68.419C449.863 73.0349 448.132 76.8558 445.908 79.8819C443.683 82.908 441.078 85.2135 438.091 86.7985C435.105 88.3835 431.808 89.3113 428.202 89.5818C424.7 89.792 421.054 89.3891 417.262 88.3732ZM407.145 143.439L390.33 138.934L490.682 50.2692L507.497 54.7748L407.145 143.439ZM430.845 37.6814C429.885 40.6045 428.494 43.3238 426.671 45.8391C424.849 48.3545 422.661 50.4187 420.109 52.0317C417.556 53.6447 414.691 54.7764 411.513 55.4267C408.418 56.0991 405.128 56.0127 401.644 55.1675C405.062 56.26 407.943 57.8712 410.288 60.0013C412.737 62.071 414.652 64.4837 416.034 67.2392C417.438 69.9124 418.3 72.7937 418.621 75.8833C418.942 78.9729 418.787 82.0234 418.156 85.0349C419.034 82.0897 420.425 79.3704 422.33 76.8772C424.235 74.3839 426.464 72.3308 429.016 70.7178C431.591 69.0223 434.456 67.8907 437.612 67.3228C440.79 66.6725 444.132 66.7287 447.638 67.4914C444.198 66.4814 441.264 64.9003 438.837 62.7481C436.41 60.596 434.495 58.1833 433.091 55.5102C431.687 52.8371 430.783 49.9447 430.38 46.833C429.977 43.7213 430.132 40.6708 430.845 37.6814ZM480.408 105.426C484.2 106.442 487.548 107.957 490.454 109.973C493.464 111.928 495.824 114.327 497.536 117.171C499.33 120.037 500.434 123.336 500.847 127.069C501.26 130.802 500.848 134.976 499.612 139.592C498.375 144.208 496.644 148.029 494.42 151.055C492.196 154.081 489.601 156.345 486.636 157.848C483.732 159.455 480.488 160.353 476.904 160.541C473.402 160.751 469.756 160.348 465.964 159.332C462.09 158.294 458.689 156.809 455.762 154.876C452.834 152.943 450.473 150.543 448.679 147.677C446.863 144.894 445.749 141.636 445.335 137.903C444.922 134.17 445.334 129.996 446.571 125.38C447.807 120.764 449.538 116.943 451.762 113.917C453.987 110.891 456.592 108.585 459.579 107C462.566 105.415 465.81 104.518 469.311 104.308C472.835 104.015 476.534 104.388 480.408 105.426ZM466.825 156.117C467.703 153.172 469.053 150.442 470.875 147.927C472.758 145.516 474.976 143.504 477.528 141.891C480.103 140.195 482.927 139.053 486 138.463C489.178 137.812 492.52 137.869 496.026 138.631C492.586 137.621 489.653 136.04 487.226 133.888C484.881 131.758 483.007 129.356 481.603 126.683C480.199 124.01 479.295 121.118 478.892 118.006C478.572 114.916 478.768 111.877 479.481 108.888C478.521 111.811 477.088 114.519 475.183 117.012C473.361 119.528 471.132 121.581 468.497 123.172C465.945 124.785 463.08 125.916 459.902 126.567C456.806 127.239 453.516 127.153 450.033 126.307C453.45 127.4 456.331 129.011 458.676 131.141C461.125 133.211 463.041 135.624 464.422 138.379C465.909 141.074 466.823 143.926 467.166 146.933C467.569 150.044 467.456 153.106 466.825 156.117Z" fill="black"/>
<path d="M407.06 83.9168L395.661 100.35L395.849 100.481L396.04 100.607L407.06 83.9168ZM400.011 76.5948L382.875 86.9081L382.965 87.0582L383.058 87.2067L400.011 76.5948ZM396.823 66.7298L376.945 68.9307L376.945 68.9307L396.823 66.7298ZM403.25 42.7439L387.135 30.8986L387.135 30.8986L403.25 42.7439ZM410.91 35.9178L420.262 53.5965L420.274 53.5904L420.285 53.5842L410.91 35.9178ZM420.643 33.225L421.841 53.1891L421.841 53.1891L420.643 33.225ZM441.785 38.89L430.765 55.5803L430.828 55.6217L430.891 55.6626L441.785 38.89ZM448.991 46.1215L432.038 56.7333L432.138 56.8926L432.24 57.05L448.991 46.1215ZM452.335 55.896L472.213 53.6951L472.213 53.6951L452.335 55.896ZM438.091 86.7985L428.716 69.1321L428.716 69.1321L438.091 86.7985ZM428.202 89.5818L429.4 109.546L429.549 109.537L429.698 109.526L428.202 89.5818ZM407.145 143.439L401.969 162.758L412.341 165.537L420.388 158.427L407.145 143.439ZM390.33 138.934L377.088 123.946L349.172 148.611L385.154 158.252L390.33 138.934ZM490.682 50.2692L495.858 30.9507L485.486 28.1716L477.439 35.2813L490.682 50.2692ZM507.497 54.7748L520.739 69.7627L548.655 45.0977L512.673 35.4562L507.497 54.7748ZM430.845 37.6814L450.3 42.3193L411.843 31.4414L430.845 37.6814ZM426.671 45.8391L410.475 34.1048L410.475 34.1048L426.671 45.8391ZM420.109 52.0317L409.425 35.1247L409.425 35.1247L420.109 52.0317ZM411.513 55.4267L407.504 35.8327L407.386 35.8569L407.268 35.8824L411.513 55.4267ZM401.644 55.1675L406.359 35.7312L395.555 74.2179L401.644 55.1675ZM410.288 60.0013L396.839 74.8044L397.104 75.0455L397.378 75.277L410.288 60.0013ZM416.034 67.2392L398.156 76.2049L398.24 76.3727L398.328 76.539L416.034 67.2392ZM418.621 75.8833L398.728 77.9477L398.728 77.9477L418.621 75.8833ZM418.156 85.0349L398.581 80.9381L437.324 90.7457L418.156 85.0349ZM422.33 76.8772L406.438 64.7352L406.438 64.7352L422.33 76.8772ZM429.016 70.7178L439.7 87.6247L439.859 87.5244L440.016 87.4212L429.016 70.7178ZM437.612 67.3228L441.154 87.0066L441.388 86.9645L441.621 86.9167L437.612 67.3228ZM447.638 67.4914L443.386 87.0343L453.272 48.3016L447.638 67.4914ZM438.837 62.7481L425.568 77.7122L425.568 77.7122L438.837 62.7481ZM433.091 55.5102L450.797 46.2105L450.797 46.2105L433.091 55.5102ZM430.38 46.833L450.215 44.264L450.215 44.264L430.38 46.833ZM490.454 109.973L479.055 126.406L479.305 126.579L479.56 126.745L490.454 109.973ZM497.536 117.171L480.4 127.484L480.49 127.634L480.583 127.783L497.536 117.171ZM500.847 127.069L480.968 129.27L480.968 129.27L500.847 127.069ZM494.42 151.055L478.305 139.21L478.305 139.21L494.42 151.055ZM486.636 157.848L477.595 140.008L477.271 140.173L476.953 140.348L486.636 157.848ZM476.904 160.541L475.856 140.568L475.781 140.572L475.706 140.577L476.904 160.541ZM455.762 154.876L466.782 138.185L466.782 138.185L455.762 154.876ZM448.679 147.677L465.632 137.066L465.532 136.906L465.43 136.749L448.679 147.677ZM445.335 137.903L425.457 140.104L425.457 140.104L445.335 137.903ZM451.762 113.917L435.647 102.072L435.647 102.072L451.762 113.917ZM459.579 107L468.954 124.667L468.954 124.667L459.579 107ZM469.311 104.308L470.51 124.272L470.738 124.258L470.966 124.239L469.311 104.308ZM466.825 156.117L447.249 152.021L485.993 161.828L466.825 156.117ZM470.875 147.927L455.113 135.616L454.891 135.9L454.679 136.192L470.875 147.927ZM477.528 141.891L488.212 158.798L488.371 158.697L488.528 158.594L477.528 141.891ZM486 138.463L489.77 158.104L489.89 158.081L490.01 158.057L486 138.463ZM496.026 138.631L491.774 158.174L501.661 119.441L496.026 138.631ZM487.226 133.888L473.777 148.691L473.866 148.772L473.956 148.852L487.226 133.888ZM481.603 126.683L499.309 117.383L499.309 117.383L481.603 126.683ZM478.892 118.006L458.999 120.07L459.025 120.323L459.058 120.575L478.892 118.006ZM479.481 108.888L498.935 113.525L460.479 102.648L479.481 108.888ZM475.183 117.012L459.291 104.87L459.137 105.072L458.987 105.278L475.183 117.012ZM468.497 123.172L458.16 106.05L457.985 106.156L457.813 106.265L468.497 123.172ZM459.902 126.567L455.892 106.973L455.774 106.997L455.656 107.022L459.902 126.567ZM450.033 126.307L454.748 106.871L443.943 145.358L450.033 126.307ZM458.676 131.141L445.227 145.944L445.493 146.185L445.766 146.417L458.676 131.141ZM464.422 138.379L446.545 147.345L446.72 147.695L446.909 148.038L464.422 138.379ZM467.166 146.933L447.295 149.197L447.312 149.35L447.332 149.502L467.166 146.933ZM422.438 69.0547C420.348 68.4946 418.977 67.8189 418.08 67.2266L396.04 100.607C400.998 103.88 406.428 106.176 412.086 107.692L422.438 69.0547ZM418.459 67.4832C417.676 66.9402 417.254 66.4474 416.963 65.983L383.058 87.2067C386.355 92.4742 390.633 96.8628 395.661 100.35L418.459 67.4832ZM417.146 66.2816C417.108 66.2185 416.839 65.7694 416.702 64.5289L376.945 68.9307C377.634 75.1558 379.49 81.2834 382.875 86.9081L417.146 66.2816ZM416.702 64.5289C416.626 63.8404 416.616 62.2227 417.377 59.3831L378.74 49.0304C377.027 55.4225 376.194 62.1534 376.945 68.9307L416.702 64.5289ZM417.377 59.3831C418.138 56.5436 418.955 55.1473 419.365 54.5892L387.135 30.8986C383.097 36.3926 380.453 42.6383 378.74 49.0304L417.377 59.3831ZM419.365 54.5892C419.731 54.0915 420 53.8234 420.14 53.6991C420.272 53.5808 420.313 53.5697 420.262 53.5965L401.558 18.239C395.634 21.373 390.874 25.8119 387.135 30.8986L419.365 54.5892ZM420.285 53.5842C420.647 53.3924 421.088 53.2343 421.841 53.1891L419.444 13.2609C413.194 13.6361 407.147 15.2732 401.535 18.2514L420.285 53.5842ZM421.841 53.1891C422.914 53.1247 424.44 53.2252 426.53 53.7853L436.883 15.1483C431.225 13.6322 425.375 12.905 419.444 13.2609L421.841 53.1891ZM426.53 53.7853C428.489 54.3104 429.831 54.9636 430.765 55.5803L452.805 22.1998C447.884 18.9507 442.506 16.6551 436.883 15.1483L426.53 53.7853ZM430.891 55.6626C431.61 56.1296 431.885 56.4883 432.038 56.7333L465.943 35.5096C462.509 30.0226 457.98 25.5604 452.679 22.1174L430.891 55.6626ZM432.24 57.05C432.21 57.0034 432.226 57.0101 432.266 57.1268C432.308 57.2523 432.396 57.5555 432.456 58.0969L472.213 53.6951C471.5 47.2565 469.48 40.9241 465.741 35.193L432.24 57.05ZM432.456 58.0969C432.532 58.7854 432.542 60.4031 431.781 63.2427L470.418 73.5954C472.131 67.2033 472.964 60.4724 472.213 53.6951L432.456 58.0969ZM431.781 63.2427C431.02 66.0822 430.203 67.4785 429.793 68.0366L462.023 91.7272C466.061 86.2331 468.705 79.9875 470.418 73.5954L431.781 63.2427ZM429.793 68.0366C429.15 68.9115 428.765 69.1059 428.716 69.1321L447.467 104.465C453.391 101.321 458.217 96.9045 462.023 91.7272L429.793 68.0366ZM428.716 69.1321C428.337 69.3334 427.751 69.5595 426.706 69.6379L429.698 109.526C435.865 109.063 441.873 107.434 447.467 104.465L428.716 69.1321ZM427.004 69.6177C425.886 69.6848 424.398 69.5797 422.438 69.0547L412.086 107.692C417.709 109.199 423.514 109.899 429.4 109.546L427.004 69.6177ZM412.322 124.121L395.507 119.615L385.154 158.252L401.969 162.758L412.322 124.121ZM403.573 153.921L503.924 65.2572L477.439 35.2813L377.088 123.946L403.573 153.921ZM485.505 69.5877L502.32 74.0933L512.673 35.4562L495.858 30.9507L485.505 69.5877ZM494.254 39.7868L393.903 128.451L420.388 158.427L520.739 69.7627L494.254 39.7868ZM411.843 31.4414C411.535 32.38 411.096 33.2484 410.475 34.1048L442.867 57.5735C445.891 53.3991 448.235 48.8291 449.846 43.9214L411.843 31.4414ZM410.475 34.1048C410.101 34.6217 409.766 34.9092 409.425 35.1247L430.793 68.9387C435.557 65.9282 439.597 62.0873 442.867 57.5735L410.475 34.1048ZM409.425 35.1247C409.064 35.3527 408.49 35.6309 407.504 35.8327L415.523 75.0206C420.893 73.9218 426.049 71.9366 430.793 68.9387L409.425 35.1247ZM407.268 35.8824C407.346 35.8654 407.354 35.8758 407.249 35.8731C407.136 35.8701 406.849 35.8501 406.359 35.7312L396.929 74.6038C402.964 76.0677 409.339 76.3655 415.759 74.9709L407.268 35.8824ZM395.555 74.2179C396.098 74.3917 396.429 74.5521 396.606 74.651C396.777 74.7465 396.837 74.8028 396.839 74.8044L423.736 45.1982C419.006 40.9011 413.518 37.966 407.733 36.1171L395.555 74.2179ZM397.378 75.277C397.846 75.6726 398.035 75.9642 398.156 76.2049L433.912 58.2736C431.269 53.0031 427.627 48.4695 423.197 44.7256L397.378 75.277ZM398.328 76.539C398.515 76.8961 398.662 77.3128 398.728 77.9477L438.514 73.8189C437.939 68.2746 436.361 62.9286 433.74 57.9395L398.328 76.539ZM398.728 77.9477C398.837 78.9995 398.783 79.9712 398.581 80.9381L437.732 89.1317C438.79 84.0757 439.046 78.9463 438.514 73.8189L398.728 77.9477ZM437.324 90.7457C437.494 90.1743 437.759 89.6263 438.223 89.0192L406.438 64.7352C403.092 69.1146 400.574 74.0051 398.989 79.3241L437.324 90.7457ZM438.223 89.0192C438.745 88.3356 439.231 87.9214 439.7 87.6247L418.332 53.8108C413.696 56.7401 409.725 60.4322 406.438 64.7352L438.223 89.0192ZM440.016 87.4212C440.241 87.2731 440.55 87.1152 441.154 87.0066L434.07 47.6389C428.361 48.6662 422.94 50.7715 418.016 54.0144L440.016 87.4212ZM441.621 86.9167C441.795 86.8812 442.31 86.8001 443.386 87.0343L451.889 47.9486C445.953 46.6572 439.784 46.4637 433.602 47.7288L441.621 86.9167ZM453.272 48.3016C452.357 48.0329 452.108 47.7854 452.107 47.7841L425.568 77.7122C430.42 82.0152 436.038 84.9299 442.003 86.6813L453.272 48.3016ZM452.107 47.7841C451.354 47.1164 450.996 46.5884 450.797 46.2105L415.385 64.81C417.994 69.7783 421.467 74.0756 425.568 77.7122L452.107 47.7841ZM450.797 46.2105C450.539 45.7188 450.325 45.1171 450.215 44.264L410.546 49.402C411.242 54.7723 412.835 59.9554 415.385 64.81L450.797 46.2105ZM450.215 44.264C450.117 43.5063 450.161 42.8993 450.3 42.3193L411.39 33.0434C410.103 38.4422 409.838 43.9364 410.546 49.402L450.215 44.264ZM475.232 124.744C477.042 125.229 478.239 125.84 479.055 126.406L501.853 93.539C496.858 90.0744 491.357 87.6539 485.585 86.1071L475.232 124.744ZM479.56 126.745C480.237 127.185 480.377 127.446 480.4 127.484L514.672 106.858C511.272 101.208 506.69 96.6701 501.348 93.1999L479.56 126.745ZM480.583 127.783C480.613 127.83 480.849 128.191 480.968 129.27L520.725 124.868C520.018 118.482 518.047 112.244 514.488 106.559L480.583 127.783ZM480.968 129.27C481.045 129.958 481.054 131.576 480.293 134.416L518.93 144.768C520.643 138.376 521.476 131.645 520.725 124.868L480.968 129.27ZM480.293 134.416C479.532 137.255 478.715 138.652 478.305 139.21L510.535 162.9C514.573 157.406 517.217 151.161 518.93 144.768L480.293 134.416ZM478.305 139.21C477.982 139.649 477.755 139.867 477.655 139.954C477.562 140.036 477.545 140.034 477.595 140.008L495.678 175.687C501.782 172.594 506.698 168.12 510.535 162.9L478.305 139.21ZM476.953 140.348C476.914 140.37 476.662 140.526 475.856 140.568L477.952 180.513C484.314 180.179 490.551 178.54 496.32 175.347L476.953 140.348ZM475.706 140.577C474.588 140.644 473.1 140.539 471.14 140.014L460.788 178.651C466.411 180.157 472.216 180.858 478.102 180.505L475.706 140.577ZM471.14 140.014C469.05 139.453 467.679 138.778 466.782 138.185L444.742 171.566C449.7 174.839 455.13 177.135 460.788 178.651L471.14 140.014ZM466.782 138.185C466.152 137.77 465.849 137.412 465.632 137.066L431.727 158.289C435.098 163.674 439.516 168.116 444.742 171.566L466.782 138.185ZM465.43 136.749C465.46 136.795 465.444 136.789 465.405 136.672C465.362 136.547 465.274 136.243 465.214 135.702L425.457 140.104C426.17 146.542 428.19 152.875 431.929 158.606L465.43 136.749ZM465.214 135.702C465.138 135.013 465.128 133.396 465.889 130.556L427.252 120.203C425.539 126.595 424.706 133.326 425.457 140.104L465.214 135.702ZM465.889 130.556C466.65 127.717 467.467 126.32 467.877 125.762L435.647 102.072C431.609 107.566 428.965 113.811 427.252 120.203L465.889 130.556ZM467.877 125.762C468.52 124.887 468.905 124.693 468.954 124.667L450.203 89.3339C444.279 92.4777 439.453 96.8943 435.647 102.072L467.877 125.762ZM468.954 124.667C469.316 124.475 469.757 124.317 470.51 124.272L468.113 84.3434C461.863 84.7186 455.815 86.3557 450.203 89.3339L468.954 124.667ZM470.966 124.239C471.909 124.161 473.287 124.223 475.232 124.744L485.585 86.1071C479.781 84.5521 473.762 83.8691 467.656 84.3761L470.966 124.239ZM485.993 161.828C486.219 161.068 486.557 160.37 487.071 159.661L454.679 136.192C451.548 140.514 449.186 145.277 447.658 150.407L485.993 161.828ZM486.638 160.237C487.124 159.615 487.63 159.166 488.212 158.798L466.844 124.984C462.321 127.842 458.392 131.417 455.113 135.616L486.638 160.237ZM488.528 158.594C488.875 158.366 489.236 158.207 489.77 158.104L482.23 118.821C476.617 119.899 471.33 122.025 466.528 125.187L488.528 158.594ZM490.01 158.057C490.183 158.021 490.698 157.94 491.774 158.174L500.278 119.088C494.342 117.797 488.173 117.604 481.99 118.869L490.01 158.057ZM501.661 119.441C500.746 119.173 500.497 118.925 500.495 118.924L473.956 148.852C478.809 153.155 484.427 156.07 490.391 157.821L501.661 119.441ZM500.675 119.085C499.974 118.448 499.574 117.887 499.309 117.383L463.897 135.983C466.44 140.826 469.789 145.067 473.777 148.691L500.675 119.085ZM499.309 117.383C499.051 116.892 498.837 116.29 498.727 115.437L459.058 120.575C459.754 125.945 461.347 131.128 463.897 135.983L499.309 117.383ZM498.786 115.942C498.695 115.07 498.751 114.298 498.935 113.525L460.026 104.25C458.784 109.456 458.448 114.762 458.999 120.07L498.786 115.942ZM460.479 102.648C460.232 103.401 459.864 104.12 459.291 104.87L491.076 129.154C494.313 124.917 496.81 120.221 498.482 115.128L460.479 102.648ZM458.987 105.278C458.722 105.644 458.479 105.858 458.16 106.05L478.835 140.293C483.785 137.304 487.999 133.411 491.379 128.747L458.987 105.278ZM457.813 106.265C457.452 106.493 456.878 106.771 455.892 106.973L463.911 146.161C469.281 145.062 474.438 143.077 479.182 140.079L457.813 106.265ZM455.656 107.022C455.735 107.005 455.743 107.016 455.638 107.013C455.525 107.01 455.237 106.99 454.748 106.871L445.317 145.744C451.352 147.208 457.727 147.505 464.147 146.111L455.656 107.022ZM443.943 145.358C444.487 145.532 444.818 145.692 444.995 145.791C445.165 145.886 445.225 145.943 445.227 145.944L472.125 116.338C467.395 112.041 461.906 109.106 456.122 107.257L443.943 145.358ZM445.766 146.417C446.235 146.812 446.424 147.104 446.545 147.345L482.3 129.413C479.657 124.143 476.015 119.609 471.585 115.866L445.766 146.417ZM446.909 148.038C447.156 148.486 447.253 148.83 447.295 149.197L487.037 144.668C486.394 139.021 484.661 133.663 481.936 128.721L446.909 148.038ZM447.332 149.502C447.453 150.437 447.412 151.245 447.249 152.021L486.401 160.214C487.499 154.967 487.685 149.651 487 144.364L447.332 149.502Z" fill="url(#paint1_linear_19_34)"/>
<path d="M55 336.5L63.5198 367.841C75.8737 413.286 107.621 450.98 150.304 470.881L164.5 477.5" stroke="white" stroke-width="40" stroke-linecap="round"/>
<circle cx="208" cy="496" r="19" fill="white"/>
<defs>
<linearGradient id="paint0_linear_19_34" x1="431" y1="125.5" x2="250" y2="292" gradientUnits="userSpaceOnUse">
<stop stop-color="#FFE18D"/>
<stop offset="1" stop-color="#FFBE0B"/>
</linearGradient>
<linearGradient id="paint1_linear_19_34" x1="380.5" y1="155.5" x2="508" y2="59.5" gradientUnits="userSpaceOnUse">
<stop stop-color="white"/>
<stop offset="1" stop-color="#FFBE0B"/>
</linearGradient>
</defs>
</svg>
