<svg width="13" height="13" viewBox="0 0 13 13" fill="none" xmlns="http://www.w3.org/2000/svg">
<g clip-path="url(#clip0_28_32)">
<path d="M1.625 10.0208V2.70831C1.625 2.27734 1.7962 1.86401 2.10095 1.55926C2.4057 1.25452 2.81902 1.08331 3.25 1.08331H10.8333C10.977 1.08331 11.1148 1.14038 11.2164 1.24196C11.3179 1.34355 11.375 1.48132 11.375 1.62498V11.375C11.375 11.5186 11.3179 11.6564 11.2164 11.758C11.1148 11.8596 10.977 11.9166 10.8333 11.9166H3.52083C3.01803 11.9166 2.53581 11.7169 2.18028 11.3614C1.82474 11.0058 1.625 10.5236 1.625 10.0208V10.0208ZM10.2917 10.8333V9.20831H3.52083C3.30534 9.20831 3.09868 9.29392 2.94631 9.44629C2.79394 9.59866 2.70833 9.80532 2.70833 10.0208C2.70833 10.2363 2.79394 10.443 2.94631 10.5953C3.09868 10.7477 3.30534 10.8333 3.52083 10.8333H10.2917ZM2.70833 8.30752C2.96221 8.18697 3.23979 8.1246 3.52083 8.12498H10.2917V2.16665H3.25C3.10634 2.16665 2.96857 2.22371 2.86698 2.3253C2.7654 2.42688 2.70833 2.56465 2.70833 2.70831V8.30752Z" fill="#8C8C8C"/>
</g>
<defs>
<clipPath id="clip0_28_32">
<rect width="13" height="13" fill="white"/>
</clipPath>
</defs>
</svg>
